<?xml version="1.0" standalone="no"?>
<!DOCTYPE svg PUBLIC "-//W3C//DTD SVG 20010904//EN"
 "http://www.w3.org/TR/2001/REC-SVG-20010904/DTD/svg10.dtd">
<svg version="1.0" xmlns="http://www.w3.org/2000/svg"
 width="1715.000000pt" height="1715.000000pt" viewBox="0 0 1715.000000 1715.000000"
 preserveAspectRatio="xMidYMid meet">
<metadata>
Created by potrace 1.14, written by Peter Selinger 2001-2017
</metadata>
<g transform="translate(0.000000,1715.000000) scale(0.100000,-0.100000)"
fill="#000000" stroke="none">
<path d="M12769 12111 c-43 -27 -99 -87 -99 -106 0 -5 -6 -16 -13 -24 -7 -9
-23 -48 -36 -88 l-24 -72 32 -118 c18 -65 33 -122 33 -128 4 -39 -5 -78 -19
-93 -28 -28 -41 -62 -53 -132 -17 -96 -55 -201 -122 -330 -66 -128 -90 -173
-99 -180 -3 -3 -11 -15 -18 -28 -7 -12 -17 -20 -23 -16 -7 4 -8 3 -4 -5 4 -6
0 -14 -8 -17 -9 -3 -16 -13 -16 -20 0 -8 -6 -17 -14 -20 -8 -3 -20 -19 -26
-35 -7 -16 -16 -29 -20 -29 -4 0 -10 -13 -13 -29 -4 -17 -33 -58 -67 -95 -57
-60 -115 -103 -266 -198 -87 -53 -275 -183 -389 -268 -154 -115 -210 -153
-340 -232 -107 -65 -395 -214 -501 -260 -21 -9 -61 -27 -88 -38 -55 -25 -230
-89 -261 -97 -11 -2 -29 -9 -40 -13 -36 -16 -352 -102 -420 -114 -11 -2 -47
-11 -80 -19 -33 -8 -76 -18 -95 -21 -19 -3 -46 -9 -60 -12 -40 -8 -63 -12
-105 -18 -22 -4 -51 -8 -65 -11 -30 -5 -95 -13 -175 -20 -33 -3 -76 -8 -95
-10 -34 -4 -123 -12 -240 -21 -127 -9 -411 -17 -630 -17 -242 0 -394 6 -685
29 -55 4 -182 8 -282 8 l-183 1 -28 58 c-16 31 -31 54 -35 51 -4 -4 -7 0 -7 9
0 9 5 19 11 23 11 6 8 123 -5 174 -3 14 -8 34 -10 45 -2 11 -10 34 -17 50 -7
17 -12 33 -11 38 1 4 -3 7 -10 7 -6 0 -8 3 -5 7 4 3 -3 18 -15 31 -13 14 -17
22 -9 17 8 -4 -1 13 -18 39 -18 26 -39 50 -47 53 -8 3 -14 11 -14 18 0 7 -12
21 -26 31 -14 10 -35 27 -47 38 -21 17 -52 33 -70 34 -4 1 -15 8 -23 17 -9 8
-20 13 -25 10 -5 -4 -9 -1 -9 4 0 6 -3 10 -7 9 -5 -1 -30 3 -58 10 -52 13
-175 21 -175 12 0 -3 -12 -7 -27 -8 -16 -1 -39 -5 -53 -8 -14 -3 -34 -6 -45
-8 -29 -4 -179 -68 -183 -78 -2 -4 -9 -8 -15 -8 -6 0 -18 -7 -27 -15 -15 -13
-21 -11 -58 26 -23 22 -42 37 -42 34 0 -3 -10 5 -22 18 -13 13 -40 30 -60 38
-21 7 -38 17 -38 22 0 4 -3 6 -7 4 -5 -3 -19 0 -33 6 -14 5 -32 11 -40 12 -8
1 -28 6 -45 10 -83 19 -240 -11 -315 -61 -19 -13 -38 -24 -42 -24 -13 0 -47
38 -40 44 3 3 0 6 -6 6 -7 0 -11 13 -10 33 1 17 -2 44 -6 60 -8 26 -5 28 45
51 130 57 259 194 312 330 35 90 40 222 13 311 -18 58 -59 145 -68 145 -5 0
-7 4 -3 9 8 14 -124 144 -163 162 -17 7 -32 17 -32 21 0 5 -7 8 -15 8 -8 0
-15 5 -15 12 0 6 -3 9 -6 6 -3 -4 -20 0 -38 7 -57 24 -165 34 -236 22 -59 -10
-96 -20 -108 -29 -6 -6 -12 -8 -12 -4 0 16 -123 -76 -180 -135 -71 -74 -152
-206 -154 -250 -1 -27 -4 -29 -41 -30 -22 0 -53 -2 -68 -3 -39 -3 -43 9 -18
57 26 52 49 158 45 212 -7 105 -62 248 -113 293 -14 14 -19 21 -11 17 8 -4 1
6 -16 22 -48 43 -77 63 -91 63 -7 0 -13 5 -13 10 0 6 -3 9 -7 8 -5 -1 -18 3
-29 10 -12 6 -24 8 -28 5 -3 -3 -6 -1 -6 6 0 7 -6 11 -14 8 -7 -3 -19 0 -25 6
-6 6 -11 8 -11 4 0 -3 -21 0 -46 8 -45 13 -168 14 -229 1 -83 -18 -149 -58
-237 -142 -104 -99 -166 -269 -154 -424 3 -41 8 -85 12 -98 7 -23 6 -23 -43 7
-28 17 -55 31 -62 31 -6 0 -11 5 -11 11 0 6 -6 9 -14 6 -8 -3 -20 0 -26 8 -10
12 -60 25 -122 31 -10 1 -21 2 -25 4 -11 3 -101 -1 -122 -5 -154 -31 -297
-149 -369 -305 -30 -67 -40 -113 -46 -215 -2 -43 20 -154 40 -200 12 -27 18
-67 18 -123 l1 -84 -50 6 c-84 11 -178 9 -225 -4 -53 -14 -157 -65 -162 -79
-1 -6 -19 -13 -38 -16 -117 -19 -266 -95 -343 -174 -152 -155 -175 -374 -58
-544 26 -39 30 -53 28 -97 -2 -28 0 -78 5 -111 9 -59 9 -61 -20 -88 -27 -26
-33 -28 -78 -21 -119 18 -319 -7 -345 -43 -3 -5 -14 -9 -23 -11 -15 -2 -42
-22 -99 -71 -38 -33 -87 -112 -108 -173 -24 -70 -26 -186 -4 -260 14 -47 14
-54 1 -68 -13 -12 -23 -13 -53 -5 -21 6 -52 11 -69 11 -23 0 -34 6 -42 25 -22
49 -119 73 -174 44 -28 -15 -57 -50 -58 -69 0 -9 -24 -24 -58 -38 -59 -23
-159 -90 -199 -133 -35 -38 -90 -143 -108 -205 -29 -100 -15 -237 37 -364 46
-112 115 -184 231 -239 106 -51 155 -67 255 -82 l82 -12 2 -36 c2 -54 -2 -83
-17 -116 -19 -42 -46 -141 -43 -157 3 -11 -69 -40 -127 -53 -66 -13 -250 -105
-280 -139 -5 -6 -32 -29 -60 -51 -27 -22 -51 -43 -53 -46 -2 -4 -14 -20 -28
-36 -13 -15 -24 -34 -24 -40 0 -7 -4 -13 -9 -13 -5 0 -12 -12 -16 -27 -5 -16
-10 -32 -11 -38 -2 -5 -5 -19 -8 -30 -2 -11 -5 -20 -6 -20 -11 0 -16 -316 -7
-372 30 -174 119 -381 194 -451 23 -21 24 -26 17 -105 -12 -152 -6 -191 36
-231 17 -15 30 -35 30 -44 0 -10 14 -28 30 -42 17 -14 43 -37 59 -53 15 -15
36 -27 45 -27 11 0 23 -15 33 -40 9 -22 20 -40 25 -40 4 0 8 -7 8 -15 0 -9 9
-15 24 -15 14 0 28 -4 31 -10 3 -5 15 -10 26 -10 12 0 19 -7 19 -20 0 -13 7
-20 19 -20 12 0 21 -8 23 -22 2 -16 10 -22 32 -23 16 0 31 -6 34 -13 2 -7 15
-12 28 -12 13 0 24 -4 24 -9 0 -5 8 -7 18 -5 11 3 21 -3 27 -18 9 -21 15 -23
73 -20 51 3 62 1 62 -12 0 -9 8 -16 19 -16 11 0 23 -5 26 -10 3 -6 17 -10 31
-10 13 0 32 -4 42 -10 27 -15 132 -42 184 -47 27 -3 48 -8 48 -13 0 -14 96
-35 295 -63 44 -6 82 -14 85 -17 6 -8 95 -32 135 -36 17 -1 60 -5 96 -8 36 -3
79 -12 95 -21 16 -8 45 -15 64 -15 19 0 80 -7 135 -15 258 -40 517 -69 795
-91 36 -2 90 -7 120 -10 30 -4 71 -6 91 -5 20 1 97 -3 170 -9 135 -11 792 -15
904 -6 33 3 134 9 225 12 91 4 181 8 200 10 19 1 79 5 133 8 55 3 109 8 120
11 12 2 45 7 72 10 28 3 77 10 110 15 33 5 74 11 90 14 17 2 41 7 55 10 63 13
162 26 170 21 5 -3 11 -1 14 3 3 5 40 15 83 22 43 7 98 19 122 27 25 8 54 13
65 12 12 -1 28 0 36 3 63 23 290 80 405 102 77 15 160 32 185 38 25 6 68 14
95 19 28 4 66 11 85 15 l35 7 -41 -45 c-35 -37 -42 -54 -48 -101 -4 -31 -5
-60 -3 -64 3 -5 8 -25 11 -46 5 -33 3 -39 -19 -49 -14 -6 -25 -15 -25 -19 0
-15 53 -36 122 -49 60 -12 74 -12 120 3 29 9 56 15 59 14 3 -1 13 4 22 12 10
7 17 10 17 6 0 -4 7 -2 15 5 8 7 22 10 30 6 8 -3 15 -2 15 3 0 9 -1 9 135 16
118 5 232 26 278 50 28 14 30 13 78 -28 54 -46 57 -52 32 -55 -10 -1 -27 -3
-38 -4 -11 -2 -27 -12 -37 -23 -20 -24 -10 -32 49 -40 21 -2 61 -9 88 -14 46
-9 241 -8 275 1 45 13 60 21 60 34 0 11 6 14 23 9 15 -4 18 -3 9 3 -11 7 -6
18 22 48 20 21 38 46 41 55 6 18 44 29 85 24 14 -1 40 -3 58 -4 26 -1 32 -5
32 -23 1 -74 116 -105 320 -88 41 3 128 41 140 61 9 13 61 30 72 23 6 -4 8 -2
5 3 -11 18 87 20 208 6 61 -7 133 -15 160 -18 28 -4 57 -8 65 -10 8 -2 56 -7
105 -10 50 -4 106 -10 125 -14 52 -11 552 -5 650 7 47 7 108 15 135 18 28 4
73 8 102 9 28 2 55 5 60 8 5 3 115 11 244 17 129 6 272 13 319 16 47 3 200 7
340 9 500 7 827 16 960 25 286 21 580 31 580 21 0 -5 21 -11 47 -15 25 -3 126
-31 222 -62 355 -112 449 -130 664 -121 149 6 231 22 293 59 36 21 39 32 21
78 -4 10 11 28 44 54 28 21 72 65 97 97 26 32 53 59 60 59 19 0 106 46 121 64
9 10 11 28 7 52 -7 33 -4 39 43 84 28 27 51 54 51 59 0 6 5 11 10 11 6 0 10 7
10 15 0 8 5 15 10 15 6 0 10 4 10 9 0 5 5 22 12 38 6 15 18 48 27 73 15 42 19
45 61 52 113 18 221 38 285 53 92 22 346 105 361 119 7 6 26 22 44 36 52 41
80 73 80 94 0 8 5 16 12 18 10 4 9 15 0 54 -7 27 -15 58 -18 70 -5 17 7 31 56
68 34 26 76 63 93 83 18 20 41 45 52 55 11 11 20 24 20 29 0 5 5 13 11 17 6 4
13 15 17 25 4 11 12 15 18 11 7 -4 9 -3 5 4 -3 6 0 14 7 19 14 8 139 168 148
188 2 6 7 9 11 8 4 -2 5 3 2 10 -2 7 9 27 25 44 16 17 44 57 62 90 17 32 36
61 41 64 5 3 9 9 8 13 -4 13 34 75 43 69 4 -3 7 1 5 9 -3 16 22 88 32 88 3 0
6 9 7 19 1 10 10 39 21 63 29 66 63 177 88 288 8 36 34 122 45 145 18 40 22
84 26 291 5 225 8 199 -53 439 -9 33 -36 115 -60 182 -69 191 -148 326 -249
426 -55 55 -176 147 -193 147 -6 0 -12 3 -14 8 -8 18 -193 98 -251 107 -12 2
-40 7 -62 10 -22 4 -52 9 -68 11 -15 2 -39 6 -55 9 -15 3 -52 8 -82 11 -30 2
-66 7 -80 11 -14 3 -54 7 -90 9 -36 1 -66 3 -67 4 -6 5 -40 9 -188 26 -22 3
-53 7 -70 11 -16 3 -46 8 -65 12 -32 6 -36 10 -51 66 -30 108 -56 189 -79 245
-12 30 -27 69 -34 85 -6 17 -15 36 -19 43 -12 17 -51 15 -76 -5 l-21 -18 50
-100 c48 -98 105 -269 95 -286 -3 -4 -22 -6 -43 -4 -117 16 -427 24 -497 15
-65 -9 -76 -4 -69 33 18 97 30 226 28 313 -1 65 3 115 13 144 43 133 49 299
14 438 -22 87 -73 217 -97 243 -7 8 -14 21 -14 27 0 7 -5 12 -11 12 -5 0 -8 4
-5 9 4 5 3 11 -1 13 -5 1 -21 23 -38 48 -16 25 -35 51 -42 58 -7 7 -29 34 -50
60 -21 26 -47 56 -58 67 -11 11 -22 23 -23 28 -1 4 -17 37 -35 75 -42 83 -116
300 -124 362 -2 14 -8 43 -13 65 -10 37 -13 53 -25 140 -2 17 -8 50 -12 75 -3
25 -7 90 -7 145 -1 93 1 105 33 170 32 67 50 168 32 179 -4 3 -8 24 -10 47 -1
23 -6 50 -11 60 -18 33 -12 49 18 49 17 0 38 10 52 25 l24 25 -22 21 c-12 11
-58 73 -101 137 -44 64 -91 130 -105 145 -14 16 -27 34 -29 40 -2 7 -31 12
-73 12 -40 1 -85 8 -107 18 -21 9 -41 16 -45 15 -4 -1 -23 2 -42 6 -19 4 -42
8 -50 10 -8 1 -25 7 -37 14 -12 7 -32 12 -45 12 -14 0 -49 12 -79 26 -29 15
-64 27 -76 28 -13 0 -23 4 -23 7 0 4 -18 9 -39 13 -22 3 -45 8 -53 11 -7 3
-34 -8 -59 -24z m291 -1137 c17 -56 24 -91 36 -179 1 -11 3 -20 4 -20 4 0 12
-71 26 -222 3 -37 8 -90 10 -118 11 -115 12 -336 2 -371 -5 -21 -27 -63 -48
-93 -61 -90 -100 -152 -100 -158 0 -3 -11 -21 -25 -39 -14 -18 -25 -35 -25
-39 0 -3 -9 -15 -20 -27 -10 -12 -17 -25 -14 -30 3 -4 -2 -11 -10 -14 -9 -3
-16 -13 -16 -20 0 -8 -7 -17 -15 -20 -8 -4 -15 -12 -15 -20 0 -7 -10 -22 -22
-34 -12 -11 -18 -20 -14 -20 4 0 -5 -11 -20 -25 -15 -14 -24 -25 -20 -25 11 0
-107 -114 -121 -116 -15 -3 -14 10 9 111 8 33 14 67 13 75 -1 8 2 20 5 25 12
19 0 275 -14 324 -3 9 -8 30 -11 46 -5 30 -10 56 -20 98 -3 12 -8 58 -11 103
-6 85 10 170 47 251 10 23 19 44 19 47 0 3 11 29 24 58 13 29 43 98 66 153 46
109 158 320 198 374 l25 34 19 -22 c10 -13 27 -52 38 -87z"/>
</g>
</svg>
